# xmcd
#
# Track frame offsets: 
#        225
#        12182
#        30718
#        44222
#        64720
#        82295
#        100689
#        112674
#        155545
#        168100
#        180490
#        189113
#        204104
#        209983
#        222081
#        236439
#        248783
#        255353
#        265942
#        279722
#        286905
#        301113
#
# Disc length: 4186 seconds
#
# Revision: 0
# Processed by: cddbd v1.5.2PL0 Copyright (c) Steve Scherf et al.
# Submitted via: ExactAudioCopy v0.99pb4
#
DISCID=2c105716
DTITLE=Markus Lamke, Thomas Berning - Hör, O Vater
DYEAR=2004
DGENRE=Freestyle
TTITLE0=Praeludium - Josef Rheinberger
TTITLE1=Sehet welche Liebe - Philipp Spitta
TTITLE2=Ich bin des herrn! - Albert Knapp
TTITLE3=Wenn Alle untreu werden - Novalis
TTITLE4=Vater Unser - Friedrich Dornbusch
TTITLE5=Nachtgebet - Friedrich Oser
TTITLE6=Ave Maria - trad.
TTITLE7=Introduction und Fuge aus Orgelsonate Nr12 - Josef Rheinberger
TTITLE8=Gott ist mein Hirte - Antonin Dvorak
TTITLE9=Hör, oh Vater - Antonin Dvorak
TTITLE10=Singet ein neues Lied - Antonin Dvorak
TTITLE11=Abendfriede - Josef Rheinberger
TTITLE12=Pater noster qui es in coelis - Peter Cornelius
TTITLE13=Vater unser, der Du bist im Himmel - Peter Cornelius
TTITLE14=Geheiligt werde Dein Name - Peter Cornelius
TTITLE15=Zu uns komme Dein Reich - Peter Cornelius
TTITLE16=Dein Wille geschehe - Peter Cornelius
TTITLE17=Unser täglich Brot gib uns heute - Peter Cornelius
TTITLE18=Vergib uns unsere Schuld - Peter Cornelius
TTITLE19=Also auch wir vergeben unsern Schuldigern - Peter Cornelius
TTITLE20=Führe uns nicht in Versuchung - Peter Cornelius
TTITLE21=Erlöse uns vom Übel - Peter Cornelius
EXTD=
EXTT0=
EXTT1=
EXTT2=
EXTT3=
EXTT4=
EXTT5=
EXTT6=
EXTT7=
EXTT8=
EXTT9=
EXTT10=
EXTT11=
EXTT12=
EXTT13=
EXTT14=
EXTT15=
EXTT16=
EXTT17=
EXTT18=
EXTT19=
EXTT20=
EXTT21=
PLAYORDER=
